<?xml version="1.0" encoding="UTF-8" standalone="no"?>
<!-- Created with Inkscape (http://www.inkscape.org/) -->

<svg
   xmlns:dc="http://purl.org/dc/elements/1.1/"
   xmlns:cc="http://creativecommons.org/ns#"
   xmlns:rdf="http://www.w3.org/1999/02/22-rdf-syntax-ns#"
   xmlns:svg="http://www.w3.org/2000/svg"
   xmlns="http://www.w3.org/2000/svg"
   xmlns:sodipodi="http://sodipodi.sourceforge.net/DTD/sodipodi-0.dtd"
   xmlns:inkscape="http://www.inkscape.org/namespaces/inkscape"
   version="1.1"
   width="48"
   height="48"
   id="svg4619"
   inkscape:version="0.48.2 r9819"
   sodipodi:docname="adi_source_2.0.svg">
  <sodipodi:namedview
     pagecolor="#ffffff"
     bordercolor="#666666"
     borderopacity="1"
     objecttolerance="10"
     gridtolerance="10"
     guidetolerance="10"
     inkscape:pageopacity="0"
     inkscape:pageshadow="2"
     inkscape:window-width="1436"
     inkscape:window-height="856"
     id="namedview810"
     showgrid="false"
     inkscape:zoom="1.7765557"
     inkscape:cx="70.171821"
     inkscape:cy="-1.3125169"
     inkscape:window-x="4"
     inkscape:window-y="0"
     inkscape:window-maximized="1"
     inkscape:current-layer="svg4619" />
  <defs
     id="defs4621" />
  <metadata
     id="metadata4624">
    <rdf:RDF>
      <cc:Work
         rdf:about="">
        <dc:format>image/svg+xml</dc:format>
        <dc:type
           rdf:resource="http://purl.org/dc/dcmitype/StillImage" />
        <dc:title></dc:title>
      </cc:Work>
    </rdf:RDF>
  </metadata>
  <g
     id="g6506"
     transform="translate(-1731.5,-713.79037)"
     style="opacity:0.6">
    <path
       style="fill:#333333;fill-opacity:1;stroke:none;display:inline;enable-background:new"
       d="m 1772.4375,728.54687 -33.5937,0 c 0,0 0.5348,15.30811 0.125,19.95313 -0.4098,4.64502 -1.4688,7.96875 -1.4688,7.96875 l 36,0 c 0,0 -0.9856,-3.29671 -1.3438,-7.96875 -0.3582,-4.67204 0.2813,-19.95313 0.2813,-19.95313 z m -22.0185,6.76563 12,6 -12,6 z"
       id="path4923"
       inkscape:connector-curvature="0"
       sodipodi:nodetypes="cczcczccccc" />
    <path
       sodipodi:nodetypes="csc"
       inkscape:connector-curvature="0"
       id="path4925"
       d="m 1750.9986,734.71057 c 0,-6.20261 1.3699,-11.23082 3.0599,-11.23082 1.6899,0 3.0599,5.02821 3.0599,11.23082"
       style="fill:none;stroke:#333333;stroke-width:1px;stroke-linecap:butt;stroke-linejoin:miter;stroke-opacity:1"
       transform="matrix(2.7120675,0,0,1,-3001.8102,-3.5443338)" />
  </g>
  <g
     transform="matrix(0.75,0,0,0.75,-1232.625,-529.34278)"
     id="g6510"
     style="opacity:0.6">
    <path
       sodipodi:nodetypes="cczcczccccc"
       inkscape:connector-curvature="0"
       id="path6513"
       d="m 1772.4375,728.54687 -33.5937,0 c 0,0 0.5348,15.30811 0.125,19.95313 -0.4098,4.64502 -1.4688,7.96875 -1.4688,7.96875 l 36,0 c 0,0 -0.9856,-3.29671 -1.3438,-7.96875 -0.3582,-4.67204 0.2813,-19.95313 0.2813,-19.95313 z m -22.0185,6.76563 12,6 -12,6 z"
       style="fill:#333333;fill-opacity:1;stroke:none;display:inline;enable-background:new" />
    <path
       transform="matrix(2.7120675,0,0,1,-3001.8102,-3.5443338)"
       style="fill:none;stroke:#333333;stroke-width:1px;stroke-linecap:butt;stroke-linejoin:miter;stroke-opacity:1"
       d="m 1750.9986,734.71057 c 0,-6.20261 1.3699,-11.23082 3.0599,-11.23082 1.6899,0 3.0599,5.02821 3.0599,11.23082"
       id="path6515"
       inkscape:connector-curvature="0"
       sodipodi:nodetypes="csc" />
  </g>
  <g
     transform="matrix(0.5,0,0,0.5,-753.75,-344.89519)"
     id="g6517"
     style="opacity:0.6">
    <path
       sodipodi:nodetypes="cczcczccccc"
       inkscape:connector-curvature="0"
       id="path6519"
       d="m 1772.4375,728.54687 -33.5937,0 c 0,0 0.5348,15.30811 0.125,19.95313 -0.4098,4.64502 -1.4688,7.96875 -1.4688,7.96875 l 36,0 c 0,0 -0.9856,-3.29671 -1.3438,-7.96875 -0.3582,-4.67204 0.2813,-19.95313 0.2813,-19.95313 z m -22.0185,6.76563 12,6 -12,6 z"
       style="fill:#333333;fill-opacity:1;stroke:none;display:inline;enable-background:new" />
    <path
       transform="matrix(2.7120675,0,0,1,-3001.8102,-3.5443338)"
       style="fill:none;stroke:#333333;stroke-width:1px;stroke-linecap:butt;stroke-linejoin:miter;stroke-opacity:1"
       d="m 1750.9986,734.71057 c 0,-6.20261 1.3699,-11.23082 3.0599,-11.23082 1.6899,0 3.0599,5.02821 3.0599,11.23082"
       id="path6521"
       inkscape:connector-curvature="0"
       sodipodi:nodetypes="csc" />
  </g>
</svg>
